<svg width="25" height="25" viewBox="0 0 25 25" fill="none" xmlns="http://www.w3.org/2000/svg">
<path d="M21.9281 9.375H21.8281C21.6815 9.3737 21.5388 9.32829 21.4184 9.24468C21.298 9.16107 21.2055 9.04314 21.1531 8.90625C21.0979 8.77406 21.0833 8.62845 21.1112 8.48794C21.139 8.34743 21.208 8.21837 21.3094 8.11719L21.3805 8.04609C21.809 7.61589 22.0496 7.0334 22.0496 6.42617C22.0496 5.81894 21.809 5.23645 21.3805 4.80625L20.2 3.62656C19.7701 3.19767 19.1877 2.95681 18.5805 2.95681C17.9732 2.95681 17.3908 3.19767 16.9609 3.62656L16.8898 3.69766C16.7851 3.79853 16.6532 3.86663 16.5103 3.8936C16.3674 3.92057 16.2197 3.90524 16.0854 3.8495C15.9511 3.79375 15.836 3.70001 15.7542 3.57978C15.6724 3.45954 15.6275 3.31805 15.625 3.17266V3.07187C15.6244 2.46455 15.3828 1.88228 14.9534 1.45284C14.524 1.0234 13.9417 0.78187 13.3344 0.78125H11.6656C11.0583 0.78187 10.476 1.0234 10.0466 1.45284C9.61715 1.88228 9.37562 2.46455 9.375 3.07187V3.17266C9.37119 3.31701 9.32562 3.45716 9.2438 3.57614C9.16199 3.69513 9.04743 3.78785 8.914 3.84307C8.78058 3.89829 8.63401 3.91365 8.49203 3.88729C8.35006 3.86092 8.21877 3.79397 8.11406 3.69453L8.04688 3.62344C7.61701 3.19455 7.03457 2.95368 6.42734 2.95368C5.82011 2.95368 5.23768 3.19455 4.80781 3.62344L3.62344 4.80312C3.19488 5.23332 2.95426 5.81581 2.95426 6.42305C2.95426 7.03028 3.19488 7.61277 3.62344 8.04297L3.69453 8.11406C3.79692 8.21881 3.86545 8.35193 3.89122 8.49612C3.91699 8.64031 3.89882 8.78892 3.83906 8.92266C3.78545 9.05586 3.69333 9.17005 3.57449 9.25063C3.45564 9.3312 3.31546 9.37451 3.17188 9.375H3.07187C2.46455 9.37562 1.88228 9.61715 1.45284 10.0466C1.0234 10.476 0.78187 11.0583 0.78125 11.6656V13.3344C0.78187 13.9417 1.0234 14.524 1.45284 14.9534C1.88228 15.3828 2.46455 15.6244 3.07187 15.625H3.17188C3.31845 15.6263 3.46124 15.6717 3.58164 15.7553C3.70204 15.8389 3.79446 15.9569 3.84687 16.0938C3.90206 16.2259 3.91666 16.3715 3.88884 16.5121C3.86101 16.6526 3.79202 16.7816 3.69062 16.8828L3.61953 16.9539C3.19098 17.3841 2.95035 17.9666 2.95035 18.5738C2.95035 19.1811 3.19098 19.7635 3.61953 20.1938L4.79922 21.3727C5.22901 21.802 5.81166 22.0431 6.41914 22.0431C7.02663 22.0431 7.60927 21.802 8.03906 21.3727L8.11016 21.3016C8.21496 21.1993 8.34807 21.1308 8.49224 21.105C8.63641 21.0793 8.785 21.0974 8.91875 21.157C9.05195 21.2104 9.16617 21.3024 9.24677 21.4211C9.32736 21.5398 9.37065 21.6799 9.37109 21.8234V21.9242C9.37089 22.2256 9.4301 22.5241 9.54534 22.8025C9.66057 23.081 9.82958 23.334 10.0427 23.5472C10.2558 23.7603 10.5088 23.9293 10.7873 24.0445C11.0658 24.1597 11.3642 24.219 11.6656 24.2188H13.3344C13.9417 24.2181 14.524 23.9766 14.9534 23.5472C15.3828 23.1177 15.6244 22.5354 15.625 21.9281V21.8273C15.6288 21.683 15.6744 21.5428 15.7562 21.4239C15.838 21.3049 15.9526 21.2122 16.086 21.1569C16.2194 21.1017 16.366 21.0864 16.508 21.1127C16.6499 21.1391 16.7812 21.206 16.8859 21.3055L16.957 21.3766C17.3869 21.8055 17.9693 22.0463 18.5766 22.0463C19.1838 22.0463 19.7662 21.8055 20.1961 21.3766L21.3766 20.1977C21.8051 19.7675 22.0457 19.185 22.0457 18.5777C22.0457 17.9705 21.8051 17.388 21.3766 16.9578L21.3055 16.8867C21.2031 16.782 21.1346 16.6489 21.1088 16.5047C21.083 16.3605 21.1012 16.2119 21.1609 16.0781C21.2144 15.9448 21.3065 15.8304 21.4254 15.7497C21.5442 15.669 21.6844 15.6256 21.8281 15.625H21.9281C22.5354 15.6244 23.1177 15.3828 23.5472 14.9534C23.9766 14.524 24.2181 13.9417 24.2188 13.3344V11.6656C24.2181 11.0583 23.9766 10.476 23.5472 10.0466C23.1177 9.61715 22.5354 9.37562 21.9281 9.375ZM22.6562 13.3344C22.656 13.5274 22.5793 13.7125 22.4428 13.849C22.3063 13.9855 22.1212 14.0623 21.9281 14.0625H21.8281C21.3748 14.0664 20.9326 14.2036 20.5567 14.4571C20.1807 14.7105 19.8878 15.069 19.7142 15.4879C19.5407 15.9068 19.4943 16.3674 19.5808 16.8125C19.6674 17.2575 19.883 17.6673 20.2008 17.9906L20.2711 18.0617C20.4075 18.1985 20.4841 18.3838 20.4841 18.577C20.4841 18.7701 20.4075 18.9554 20.2711 19.0922L19.0906 20.2711C18.9541 20.4076 18.7689 20.4843 18.5758 20.4843C18.3827 20.4843 18.1975 20.4076 18.0609 20.2711L17.9906 20.2C17.6671 19.8826 17.2574 19.6673 16.8125 19.581C16.3676 19.4947 15.9071 19.5411 15.4884 19.7146C15.0697 19.8881 14.7112 20.1808 14.4577 20.5565C14.2042 20.9322 14.0667 21.3741 14.0625 21.8273V21.9281C14.0623 22.1212 13.9855 22.3063 13.849 22.4428C13.7125 22.5793 13.5274 22.656 13.3344 22.6562H11.6656C11.4726 22.656 11.2875 22.5793 11.151 22.4428C11.0145 22.3063 10.9377 22.1212 10.9375 21.9281V21.8273C10.9353 21.3732 10.799 20.9299 10.5458 20.5529C10.2926 20.1759 9.93366 19.8822 9.51408 19.7084C9.09451 19.5347 8.63296 19.4887 8.18737 19.5763C7.74177 19.6639 7.33197 19.8811 7.00938 20.2008L6.93828 20.2719C6.80153 20.408 6.61641 20.4845 6.42344 20.4845C6.23046 20.4845 6.04534 20.408 5.90859 20.2719L4.72891 19.093C4.59251 18.9562 4.51592 18.7709 4.51592 18.5777C4.51592 18.3846 4.59251 18.1993 4.72891 18.0625L4.8 17.9914C5.11812 17.6681 5.33397 17.2582 5.42062 16.8129C5.50726 16.3677 5.46086 15.9068 5.28721 15.4877C5.11355 15.0687 4.82034 14.71 4.44415 14.4566C4.06797 14.2031 3.62547 14.0661 3.17188 14.0625H3.07187C2.87883 14.0623 2.69375 13.9855 2.55724 13.849C2.42074 13.7125 2.34396 13.5274 2.34375 13.3344V11.6656C2.34396 11.4726 2.42074 11.2875 2.55724 11.151C2.69375 11.0145 2.87883 10.9377 3.07187 10.9375H3.17188C3.62524 10.9336 4.06744 10.7964 4.44335 10.5429C4.81925 10.2895 5.11223 9.93095 5.28576 9.51209C5.45928 9.09323 5.50568 8.63256 5.41916 8.18751C5.33264 7.74246 5.11703 7.33272 4.79922 7.00938L4.72891 6.93828C4.59256 6.80163 4.51598 6.61648 4.51598 6.42344C4.51598 6.2304 4.59256 6.04524 4.72891 5.90859L5.90859 4.72813C6.04514 4.59159 6.23034 4.51488 6.42344 4.51488C6.61654 4.51488 6.80173 4.59159 6.93828 4.72813L7.00859 4.79922C7.33199 5.11688 7.7417 5.33238 8.18669 5.41887C8.63167 5.50535 9.09227 5.45901 9.51111 5.28561C9.92995 5.11221 10.2885 4.81942 10.5422 4.4437C10.7958 4.06799 10.9333 3.62595 10.9375 3.17266V3.07187C10.9377 2.87883 11.0145 2.69375 11.151 2.55724C11.2875 2.42074 11.4726 2.34396 11.6656 2.34375H13.3344C13.5274 2.34396 13.7125 2.42074 13.849 2.55724C13.9855 2.69375 14.0623 2.87883 14.0625 3.07187V3.17266C14.0665 3.62596 14.2038 4.06805 14.4574 4.44384C14.7109 4.81963 15.0694 5.11249 15.4883 5.28591C15.9071 5.45934 16.3677 5.50567 16.8127 5.41913C17.2577 5.33258 17.6673 5.11699 17.9906 4.79922L18.0617 4.72813C18.1983 4.59159 18.3835 4.51488 18.5766 4.51488C18.7697 4.51488 18.9549 4.59159 19.0914 4.72813L20.2711 5.90859C20.4074 6.04524 20.484 6.2304 20.484 6.42344C20.484 6.61648 20.4074 6.80163 20.2711 6.93828L20.2 7.00938C19.8821 7.33277 19.6665 7.74257 19.58 8.1877C19.4935 8.63282 19.54 9.09355 19.7136 9.51244C19.8872 9.93134 20.1803 10.2898 20.5564 10.5433C20.9324 10.7967 21.3747 10.9338 21.8281 10.9375H21.9281C22.1212 10.9377 22.3063 11.0145 22.4428 11.151C22.5793 11.2875 22.656 11.4726 22.6562 11.6656V13.3344Z" fill="#DDDDDD"/>
</svg>
