<svg width="21" height="25" viewBox="0 0 21 25" fill="none" xmlns="http://www.w3.org/2000/svg">
<path d="M19.1426 25C18.6032 25 18.166 24.5628 18.166 24.0234C18.166 20.2002 15.0556 17.0898 11.2324 17.0898H9.76758C5.94438 17.0898 2.83398 20.2002 2.83398 24.0234C2.83398 24.5628 2.39678 25 1.85742 25C1.31807 25 0.880859 24.5628 0.880859 24.0234C0.880859 19.1233 4.86743 15.1367 9.76758 15.1367H11.2324C16.1326 15.1367 20.1191 19.1233 20.1191 24.0234C20.1191 24.5628 19.6819 25 19.1426 25Z" fill="#DDDDDD"/>
<path d="M10.4023 13.1836C6.76763 13.1836 3.81055 10.2265 3.81055 6.5918C3.81055 2.95708 6.76763 0 10.4023 0C14.0371 0 16.9941 2.95708 16.9941 6.5918C16.9941 10.2265 14.0371 13.1836 10.4023 13.1836ZM10.4023 1.95312C7.84458 1.95312 5.76367 4.03403 5.76367 6.5918C5.76367 9.14956 7.84458 11.2305 10.4023 11.2305C12.9601 11.2305 15.041 9.14956 15.041 6.5918C15.041 4.03403 12.9601 1.95312 10.4023 1.95312Z" fill="#DDDDDD"/>
</svg>
