<svg width="14" height="14" viewBox="0 0 14 14" fill="none" xmlns="http://www.w3.org/2000/svg">
<path d="M7.27774 14C8.58529 14 9.86348 13.5895 10.9507 12.8203C12.0379 12.0511 12.8852 10.9579 13.3856 9.67879C13.886 8.3997 14.0169 6.99224 13.7618 5.63437C13.5067 4.2765 12.8771 3.02922 11.9525 2.05026C11.0279 1.07129 9.84993 0.404603 8.5675 0.134506C7.28507 -0.13559 5.9558 0.00303298 4.74777 0.532846C3.53975 1.06266 2.50724 1.95987 1.7808 3.11101C1.05436 4.26216 0.666626 5.61553 0.666626 7C0.666626 8.85652 1.36315 10.637 2.60298 11.9497C3.8428 13.2625 5.52436 14 7.27774 14ZM7.27774 2C8.2117 2 9.1247 2.29325 9.90126 2.84265C10.6778 3.39206 11.2831 4.17296 11.6405 5.08659C11.9979 6.00022 12.0914 7.00555 11.9092 7.97545C11.727 8.94536 11.2773 9.83627 10.6169 10.5355C9.95644 11.2348 9.11502 11.711 8.199 11.9039C7.28298 12.0969 6.33349 11.9978 5.47062 11.6194C4.60775 11.241 3.87024 10.6001 3.35135 9.77785C2.83247 8.95561 2.55551 7.98891 2.55551 7C2.55551 5.67392 3.05303 4.40215 3.93862 3.46447C4.82421 2.52679 6.02533 2 7.27774 2Z" fill="#8D8D8D"/>
</svg>
