<svg width="25" height="14" viewBox="0 0 25 14" fill="none" xmlns="http://www.w3.org/2000/svg">
<path d="M24.055 5.37005C22.5404 3.67506 20.7152 2.32495 18.6911 1.40225C16.6669 0.479556 14.4863 0.00366211 12.2825 0.00366211C10.0787 0.00366211 7.8981 0.479556 5.87394 1.40225C3.84977 2.32495 2.0246 3.67506 0.510002 5.37005C0.181631 5.74142 -0.000743195 6.23132 2.2764e-06 6.74005V12C2.2764e-06 12.5305 0.19901 13.0392 0.553245 13.4143C0.90748 13.7893 1.38793 14 1.88889 14H22.6667C23.1676 14 23.6481 13.7893 24.0023 13.4143C24.3566 13.0392 24.5556 12.5305 24.5556 12V6.74005C24.5589 6.23268 24.3799 5.74295 24.055 5.37005ZM22.6667 12H1.88889V6.73005C3.22738 5.23772 4.83866 4.04938 6.62467 3.23734C8.41068 2.42529 10.3341 2.00652 12.2778 2.00652C14.2215 2.00652 16.1449 2.42529 17.9309 3.23734C19.7169 4.04938 21.3282 5.23772 22.6667 6.73005V12Z" fill="#8D8D8D"/>
</svg>
