<svg width="23" height="25" viewBox="0 0 23 25" fill="none" xmlns="http://www.w3.org/2000/svg">
<path d="M17.1422 14.5199C16.7108 14.5199 16.361 14.8696 16.361 15.3011V18.3508C16.361 18.9398 15.8818 19.4189 15.2928 19.4189H11.1962V7.21455C11.1962 6.24932 10.7168 5.41899 9.88086 4.93633L4.03721 1.5625H15.2928C15.8818 1.5625 16.361 2.04165 16.361 2.63066V6.10923C16.361 6.54072 16.7108 6.89048 17.1422 6.89048C17.5737 6.89048 17.9235 6.54072 17.9235 6.10923V2.63066C17.9235 1.18013 16.7434 0 15.2928 0H2.971C1.52046 0 0.340332 1.18013 0.340332 2.63066V19.1324C0.340332 20.0977 0.819726 20.928 1.65566 21.4107L7.2502 24.6406C7.66821 24.8819 8.11685 25.0026 8.56553 25.0026C9.01416 25.0025 9.46294 24.8819 9.88081 24.6406C10.7167 24.1581 11.1961 23.3277 11.1961 22.3625V20.9814H15.2928C16.7434 20.9814 17.9234 19.8013 17.9234 18.3508V15.3011C17.9235 14.8696 17.5737 14.5199 17.1422 14.5199ZM9.63369 22.3625C9.63369 22.7602 9.44404 23.0886 9.09961 23.2875C8.75522 23.4863 8.37588 23.4863 8.03149 23.2875L2.43691 20.0575C2.09248 19.8587 1.90283 19.5301 1.90283 19.1324V2.63066C1.90283 2.47344 1.93696 2.32402 1.99824 2.1895L9.09961 6.2895C9.44404 6.48833 9.63369 6.81689 9.63369 7.21455V22.3625ZM22.4308 11.0432L19.8921 13.5818C19.7396 13.7344 19.5396 13.8107 19.3397 13.8107C19.1398 13.8107 18.9399 13.7344 18.7874 13.5818C18.4822 13.2768 18.4822 12.7821 18.7874 12.477L19.9924 11.272H12.8146C12.3832 11.272 12.0334 10.9222 12.0334 10.4907C12.0334 10.0592 12.3832 9.70947 12.8146 9.70947H19.9923L18.7874 8.50444C18.4822 8.19937 18.4822 7.70469 18.7874 7.39961C19.0924 7.09448 19.5871 7.09448 19.8922 7.39961L22.4309 9.93828C22.7359 10.2434 22.7359 10.7381 22.4308 11.0432Z" fill="#DDDDDD"/>
</svg>
