<svg width="37" height="33" viewBox="0 0 37 33" fill="none" xmlns="http://www.w3.org/2000/svg">
<path d="M6.88015 17.4907C6.92506 18.1911 7.59332 18.7261 8.37275 18.6858C9.15218 18.6454 9.74763 18.045 9.70272 17.3446C9.65781 16.6443 8.98955 16.1093 8.21012 16.1496C7.43069 16.19 6.83524 16.7904 6.88015 17.4907Z" fill="white"/>
<path d="M15.3479 17.0523C15.2427 15.4111 14.4333 13.8705 13.0899 12.7544C12.8143 12.5257 12.4488 12.4048 12.0739 12.4182C11.699 12.4317 11.3454 12.5784 11.0909 12.8261C10.8364 13.0738 10.7018 13.4022 10.7168 13.739C10.7318 14.0759 10.895 14.3936 11.1707 14.6222C11.9508 15.3044 12.4182 16.2243 12.4808 17.2008C12.5434 18.1772 12.1967 19.1393 11.509 19.8975C11.2644 20.1531 11.1428 20.4855 11.171 20.8217C11.1992 21.1578 11.3748 21.4702 11.6593 21.69C11.9438 21.9098 12.3138 22.019 12.6879 21.9937C13.062 21.9683 13.4096 21.8105 13.6542 21.5549C14.8461 20.3076 15.4532 18.6936 15.3479 17.0523ZM22.4043 16.687C22.305 15.1555 21.8636 13.6576 21.1064 12.2826C20.3493 10.9076 19.2918 9.68356 17.9971 8.68347C17.8535 8.57479 17.6874 8.49259 17.5085 8.44157C17.3295 8.39055 17.141 8.37171 16.9539 8.38612C16.7668 8.40053 16.5847 8.44792 16.418 8.52556C16.2513 8.60321 16.1032 8.70961 15.9823 8.83868C15.738 9.09934 15.6189 9.43651 15.6513 9.77604C15.6674 9.94415 15.7201 10.1078 15.8065 10.2576C15.8929 10.4074 16.0114 10.5404 16.155 10.6491C17.1642 11.4276 17.9884 12.381 18.5782 13.4522C19.1681 14.5235 19.5115 15.6905 19.5881 16.8837C19.6646 18.0769 19.4726 19.2717 19.0235 20.3967C18.5745 21.5217 17.8777 22.5538 16.9747 23.4314C16.8488 23.5557 16.7517 23.7012 16.689 23.8596C16.6262 24.0179 16.599 24.1858 16.609 24.3536C16.626 24.6014 16.7233 24.8392 16.8891 25.0378C17.0548 25.2364 17.2817 25.387 17.5416 25.471C17.8016 25.555 18.0833 25.5687 18.3518 25.5104C18.6203 25.4522 18.864 25.3245 19.0526 25.1432C20.2174 24.0098 21.1148 22.6763 21.6908 21.223C22.2668 19.7698 22.5095 18.2268 22.4043 16.687Z" fill="white"/>
<path d="M24.7048 28.9346C28.0454 25.4415 29.7474 20.9201 29.4525 16.3221C29.1577 11.7241 26.889 7.40829 23.124 4.28307C22.8454 4.08278 22.4929 3.98453 22.1371 4.00804C21.7813 4.03155 21.4485 4.17507 21.2056 4.40982C20.9626 4.64457 20.8274 4.95318 20.8271 5.27375C20.8268 5.59431 20.9614 5.90313 21.204 6.13824C24.4383 8.81766 26.3878 12.5213 26.6408 16.4677C26.8939 20.414 25.4308 24.2943 22.5603 27.2898C22.3232 27.5379 22.2018 27.8587 22.2213 28.1853C22.2329 28.356 22.2829 28.5229 22.3681 28.6759C22.4534 28.8289 22.5721 28.9649 22.7173 29.0756C23.0021 29.2928 23.371 29.3999 23.7434 29.3735C24.1158 29.3471 24.4615 29.1893 24.7048 28.9346Z" fill="white"/>
</svg>
